<svg width="79" height="91" viewBox="0 0 79 91" fill="none" xmlns="http://www.w3.org/2000/svg">
<path d="M5.065 24.4956L39.5 45.3717L73.935 24.4956M39.5 87V45.3304M75 61.866V28.7949C74.9986 27.345 74.6334 25.921 73.9411 24.6658C73.2487 23.4105 72.2536 22.3682 71.0556 21.6432L43.4444 5.10767C42.2452 4.38202 40.8848 4 39.5 4C38.1152 4 36.7548 4.38202 35.5556 5.10767L7.94444 21.6432C6.74637 22.3682 5.75126 23.4105 5.05893 24.6658C4.36661 25.921 4.00142 27.345 4 28.7949V61.866C4.00142 63.3158 4.36661 64.7398 5.05893 65.995C5.75126 67.2503 6.74637 68.2927 7.94444 69.0176L35.5556 85.5531C36.7548 86.2788 38.1152 86.6608 39.5 86.6608C40.8848 86.6608 42.2452 86.2788 43.4444 85.5531L71.0556 69.0176C72.2536 68.2927 73.2487 67.2503 73.9411 65.995C74.6334 64.7398 74.9986 63.3158 75 61.866Z" stroke="#33271F" stroke-width="7" stroke-linecap="round" stroke-linejoin="round"/>
</svg>
