<svg width="243" height="237" viewBox="0 0 243 237" fill="none" xmlns="http://www.w3.org/2000/svg">
<path d="M5.065 99.4956L39.5 120.372L73.935 99.4956M39.5 162V120.33M75 136.866V103.795C74.9986 102.345 74.6334 100.921 73.9411 99.6658C73.2487 98.4105 72.2536 97.3682 71.0556 96.6432L43.4444 80.1077C42.2452 79.382 40.8848 79 39.5 79C38.1152 79 36.7548 79.382 35.5556 80.1077L7.94444 96.6432C6.74637 97.3682 5.75126 98.4105 5.05893 99.6658C4.36661 100.921 4.00142 102.345 4 103.795V136.866C4.00142 138.316 4.36661 139.74 5.05893 140.995C5.75126 142.25 6.74637 143.293 7.94444 144.018L35.5556 160.553C36.7548 161.279 38.1152 161.661 39.5 161.661C40.8848 161.661 42.2452 161.279 43.4444 160.553L71.0556 144.018C72.2536 143.293 73.2487 142.25 73.9411 140.995C74.6334 139.74 74.9986 138.316 75 136.866Z" stroke="#FFA869" stroke-width="7" stroke-linecap="round" stroke-linejoin="round"/>
<path d="M135.021 108.053C135.021 114.127 132.478 118.113 127.391 120.011C133.769 122.136 136.957 126.464 136.957 132.993C136.957 136.865 135.629 140.167 132.972 142.9C130.314 145.633 125.797 147 119.42 147H98.9217V94.6157H117.37C123.899 94.6157 128.454 95.9822 131.036 98.7153C133.693 101.448 135.021 104.561 135.021 108.053ZM111.79 117.961H116.117C120.217 117.961 122.267 114.848 122.267 108.623C122.267 102.397 120.217 99.2847 116.117 99.2847H111.79V117.961ZM111.79 142.331H117.712C122.039 142.331 124.203 139.218 124.203 132.993C124.203 130.184 123.595 127.754 122.381 125.705C121.242 123.579 119.686 122.516 117.712 122.516H111.79V142.331ZM185.657 147L184.86 104.979L174.041 147H162.881L151.949 103.384L151.266 147H143.408L144.888 94.6157H161.173L170.283 131.968L179.735 94.6157H197.045L198.525 147H185.657ZM242.31 94.6157V100.765H228.873V147H216.118V100.765H202.453V94.6157H242.31Z" fill="white"/>
</svg>
